<svg width="65" height="64" viewBox="0 0 65 64" fill="none" xmlns="http://www.w3.org/2000/svg">
<mask id="mask0_739_3033" style="mask-type:alpha" maskUnits="userSpaceOnUse" x="0" y="0" width="65" height="64">
<rect x="0.666992" width="64" height="64" fill="#D9D9D9"/>
</mask>
<g mask="url(#mask0_739_3033)">
<path d="M15.067 52.2663C13.067 50.2663 11.5003 47.9552 10.367 45.333C9.23366 42.7108 8.66699 39.9997 8.66699 37.1997C8.66699 34.3997 9.20033 31.633 10.267 28.8997C11.3337 26.1663 13.067 23.5997 15.467 21.1997C17.0225 19.6441 18.9448 18.3108 21.2337 17.1997C23.5225 16.0886 26.2337 15.2108 29.367 14.5663C32.5003 13.9219 36.0781 13.533 40.1003 13.3997C44.1226 13.2663 48.6226 13.4219 53.6003 13.8663C53.9559 18.5774 54.067 22.9108 53.9337 26.8663C53.8003 30.8219 53.4337 34.3886 52.8337 37.5663C52.2337 40.7441 51.3892 43.5219 50.3003 45.8997C49.2114 48.2774 47.867 50.2663 46.267 51.8663C43.9114 54.2219 41.4114 55.9441 38.767 57.033C36.1225 58.1219 33.4225 58.6663 30.667 58.6663C27.7781 58.6663 24.9559 58.0997 22.2003 56.9663C19.4448 55.833 17.067 54.2663 15.067 52.2663ZM22.5337 51.1997C23.8225 51.9552 25.1448 52.4997 26.5003 52.833C27.8559 53.1663 29.2448 53.333 30.667 53.333C32.7114 53.333 34.7337 52.9219 36.7337 52.0997C38.7337 51.2774 40.6448 49.9552 42.467 48.133C43.267 47.333 44.0781 46.2108 44.9003 44.7663C45.7225 43.3219 46.4337 41.433 47.0337 39.0997C47.6337 36.7663 48.0892 33.9441 48.4003 30.633C48.7114 27.3219 48.7559 23.3774 48.5337 18.7997C46.3559 18.7108 43.9003 18.6774 41.167 18.6997C38.4337 18.7219 35.7114 18.933 33.0003 19.333C30.2892 19.733 27.7114 20.3774 25.267 21.2663C22.8225 22.1552 20.8225 23.3774 19.267 24.933C17.267 26.933 15.8892 28.9108 15.1337 30.8663C14.3781 32.8219 14.0003 34.7108 14.0003 36.533C14.0003 39.1552 14.5003 41.4552 15.5003 43.433C16.5003 45.4108 17.3781 46.7997 18.1337 47.5997C20.0003 44.0441 22.467 40.633 25.5337 37.3663C28.6003 34.0997 32.1781 31.4219 36.267 29.333C33.067 32.133 30.2781 35.2997 27.9003 38.833C25.5225 42.3663 23.7337 46.4886 22.5337 51.1997Z" fill="#1C1B1F"/>
</g>
</svg>
