<svg width="25" height="25" viewBox="0 0 25 25" fill="none" xmlns="http://www.w3.org/2000/svg">
<g clip-path="url(#clip0_924_3979)">
<path d="M3.07422 21.5007L4.75645 17.7007C3.46945 15.9088 2.89342 13.7177 3.13646 11.5388C3.37949 9.35988 4.42488 7.34284 6.07644 5.86622C7.728 4.3896 9.8722 3.55492 12.1066 3.5188C14.3411 3.48269 16.5121 4.24763 18.2124 5.67007C19.9127 7.09252 21.0252 9.07468 21.3413 11.2446C21.6574 13.4145 21.1553 15.6229 19.9292 17.4555C18.7031 19.288 16.8373 20.6187 14.682 21.1978C12.5266 21.7769 10.2299 21.5646 8.22285 20.6007L3.07422 21.5007Z" stroke="white" stroke-width="1.5" stroke-linecap="round" stroke-linejoin="round"/>
<path d="M9.19141 10.5C9.19141 10.6326 9.24511 10.7598 9.34071 10.8536C9.43631 10.9473 9.56597 11 9.70117 11C9.83637 11 9.96603 10.9473 10.0616 10.8536C10.1572 10.7598 10.2109 10.6326 10.2109 10.5V9.5C10.2109 9.36739 10.1572 9.24021 10.0616 9.14645C9.96603 9.05268 9.83637 9 9.70117 9C9.56597 9 9.43631 9.05268 9.34071 9.14645C9.24511 9.24021 9.19141 9.36739 9.19141 9.5V10.5ZM9.19141 10.5C9.19141 11.8261 9.72848 13.0979 10.6845 14.0355C11.6405 14.9732 12.9371 15.5 14.2891 15.5M14.2891 15.5H15.3086C15.4438 15.5 15.5735 15.4473 15.6691 15.3536C15.7647 15.2598 15.8184 15.1326 15.8184 15C15.8184 14.8674 15.7647 14.7402 15.6691 14.6464C15.5735 14.5527 15.4438 14.5 15.3086 14.5H14.2891C14.1539 14.5 14.0242 14.5527 13.9286 14.6464C13.833 14.7402 13.7793 14.8674 13.7793 15C13.7793 15.1326 13.833 15.2598 13.9286 15.3536C14.0242 15.4473 14.1539 15.5 14.2891 15.5Z" stroke="white" stroke-width="1.5" stroke-linecap="round" stroke-linejoin="round"/>
</g>
<defs>
<clipPath id="clip0_924_3979">
<rect width="24.4688" height="24" fill="white" transform="translate(0.015625 0.5)"/>
</clipPath>
</defs>
</svg>
