<svg width="64" height="64" viewBox="0 0 64 64" fill="none" xmlns="http://www.w3.org/2000/svg">
<mask id="mask0_707_3965" style="mask-type:alpha" maskUnits="userSpaceOnUse" x="0" y="0" width="64" height="64">
<rect width="64" height="64" fill="#D9D9D9"/>
</mask>
<g mask="url(#mask0_707_3965)">
<path d="M8 56V18.6667H18.6667V8H45.3333V29.3333H56V56H34.6667V45.3333H29.3333V56H8ZM13.3333 50.6667H18.6667V45.3333H13.3333V50.6667ZM13.3333 40H18.6667V34.6667H13.3333V40ZM13.3333 29.3333H18.6667V24H13.3333V29.3333ZM24 40H29.3333V34.6667H24V40ZM24 29.3333H29.3333V24H24V29.3333ZM24 18.6667H29.3333V13.3333H24V18.6667ZM34.6667 40H40V34.6667H34.6667V40ZM34.6667 29.3333H40V24H34.6667V29.3333ZM34.6667 18.6667H40V13.3333H34.6667V18.6667ZM45.3333 50.6667H50.6667V45.3333H45.3333V50.6667ZM45.3333 40H50.6667V34.6667H45.3333V40Z" fill="#1C1B1F"/>
</g>
</svg>
