<svg width="24" height="66" viewBox="0 0 24 66" fill="none" xmlns="http://www.w3.org/2000/svg">
<path d="M13.7354 65.5625H24.0001V57.7675H16.3541V36.7093H24.0001V28.854H16.3541V8.00461H24.0001V0.000790435H13.7354V65.5625Z" fill="#331200"/>
<path d="M0 23.6405L12.3766 20.3926V27.9305L0 28.7766V23.6405Z" fill="#331200"/>
<path d="M0 41.922L12.3766 45.1699V37.632L0 36.7859V41.922Z" fill="#331200"/>
<path d="M0 16.9182L12.3766 10.7246V18.8709L0 22.281V16.9182Z" fill="#331200"/>
<path d="M0 48.6443L12.3766 54.8379V46.6916L0 43.2815V48.6443Z" fill="#331200"/>
<path d="M0.000393569 11.1032L12.377 0L12.377 8.8595L0.000393569 15.5596V11.1032Z" fill="#331200"/>
<path d="M0.000393569 54.4593L12.377 65.5625L12.377 56.703L0.000393569 50.0029V54.4593Z" fill="#331200"/>
<path d="M0 35.58L12.3766 36.2598V29.3108L0 30.0661V35.58Z" fill="#331200"/>
</svg>
