<svg width="65" height="64" viewBox="0 0 65 64" fill="none" xmlns="http://www.w3.org/2000/svg">
<mask id="mask0_739_3038" style="mask-type:alpha" maskUnits="userSpaceOnUse" x="0" y="0" width="65" height="64">
<rect x="0.333008" width="64" height="64" fill="#D9D9D9"/>
</mask>
<g mask="url(#mask0_739_3038)">
<path d="M28.3333 41.334H36.3333V34.6673H43V26.6673H36.3333V20.0007H28.3333V26.6673H21.6667V34.6673H28.3333V41.334ZM32.3333 58.6673C26.1556 57.1118 21.0556 53.5673 17.0333 48.034C13.0111 42.5007 11 36.3562 11 29.6007V13.334L32.3333 5.33398L53.6667 13.334V29.6007C53.6667 36.3562 51.6556 42.5007 47.6333 48.034C43.6111 53.5673 38.5111 57.1118 32.3333 58.6673ZM32.3333 53.0673C36.9556 51.6006 40.7778 48.6673 43.8 44.2673C46.8222 39.8673 48.3333 34.9784 48.3333 29.6007V17.0007L32.3333 11.0007L16.3333 17.0007V29.6007C16.3333 34.9784 17.8444 39.8673 20.8667 44.2673C23.8889 48.6673 27.7111 51.6006 32.3333 53.0673Z" fill="#1C1B1F"/>
</g>
</svg>
