<svg width="24" height="25" viewBox="0 0 24 25" fill="none" xmlns="http://www.w3.org/2000/svg">
<g clip-path="url(#clip0_707_3900)">
<path d="M8 13.5V11C8 10.6022 8.15804 10.2206 8.43934 9.93934C8.72064 9.65804 9.10218 9.5 9.5 9.5C9.89782 9.5 10.2794 9.65804 10.5607 9.93934C10.842 10.2206 11 10.6022 11 11V12.5" stroke="#1F0300" stroke-width="2.75" stroke-linecap="round" stroke-linejoin="round"/>
<path d="M14 11C14 10.6022 14.158 10.2206 14.4393 9.93934C14.7206 9.65804 15.1022 9.5 15.5 9.5C15.8978 9.5 16.2794 9.65804 16.5607 9.93934C16.842 10.2206 17 10.6022 17 11V12.5" stroke="#1F0300" stroke-width="2.75" stroke-linecap="round" stroke-linejoin="round"/>
<path d="M17.0002 12C17.0002 11.6022 17.1582 11.2206 17.4395 10.9393C17.7208 10.658 18.1024 10.5 18.5002 10.5C18.898 10.5 19.2795 10.658 19.5608 10.9393C19.8421 11.2206 20.0002 11.6022 20.0002 12V16.5C20.0002 18.0913 19.368 19.6174 18.2428 20.7426C17.1176 21.8679 15.5915 22.5 14.0002 22.5H12.0002H12.2082C11.2145 22.5002 10.2364 22.2535 9.36157 21.7823C8.48676 21.311 7.7427 20.6299 7.19618 19.8C7.13059 19.7002 7.06526 19.6002 7.00018 19.5C6.68818 19.021 5.59318 17.112 3.71418 13.772C3.52263 13.4315 3.47147 13.0298 3.57157 12.6522C3.67166 12.2745 3.91513 11.9509 4.25018 11.75C4.60706 11.5359 5.02526 11.4471 5.43834 11.4978C5.85143 11.5486 6.23572 11.7359 6.53018 12.03L8.00018 13.5" stroke="#1F0300" stroke-width="2.75" stroke-linecap="round" stroke-linejoin="round"/>
<path d="M11 12V4C11 3.80302 11.0388 3.60796 11.1142 3.42597C11.1896 3.24399 11.3001 3.07863 11.4393 2.93934C11.5786 2.80005 11.744 2.68956 11.926 2.61418C12.108 2.5388 12.303 2.5 12.5 2.5C12.697 2.5 12.892 2.5388 13.074 2.61418C13.256 2.68956 13.4214 2.80005 13.5607 2.93934C13.6999 3.07863 13.8104 3.24399 13.8858 3.42597C13.9612 3.60796 14 3.80302 14 4V12.5" stroke="#1F0300" stroke-width="2.75" stroke-linecap="round" stroke-linejoin="round"/>
</g>
<defs>
<clipPath id="clip0_707_3900">
<rect width="24" height="24" fill="white" transform="translate(0 0.5)"/>
</clipPath>
</defs>
</svg>
