<svg width="502" height="493" viewBox="0 0 502 493" fill="none" xmlns="http://www.w3.org/2000/svg">
<path d="M501.266 490.5C501.266 491.319 500.586 492 499.727 492C498.867 492 498.188 491.319 498.188 490.5C498.188 489.681 498.867 489 499.727 489C500.586 489 501.266 489.681 501.266 490.5Z" fill="#D19E79" stroke="#A0A0A0"/>
<path d="M3.73438 490.5C3.73438 491.319 3.05448 492 2.19531 492C1.33615 492 0.65625 491.319 0.65625 490.5C0.65625 489.681 1.33615 489 2.19531 489C3.05448 489 3.73438 489.681 3.73438 490.5Z" fill="#D19E79" stroke="#A0A0A0"/>
<path d="M501.266 2.5C501.266 3.31935 500.586 4 499.727 4C498.867 4 498.188 3.31935 498.188 2.5C498.188 1.68065 498.867 1 499.727 1C500.586 1 501.266 1.68065 501.266 2.5Z" fill="#D19E79" stroke="#A0A0A0"/>
<path d="M3.73438 2.5C3.73438 3.31935 3.05448 4 2.19531 4C1.33615 4 0.65625 3.31935 0.65625 2.5C0.65625 1.68065 1.33615 1 2.19531 1C3.05448 1 3.73438 1.68065 3.73438 2.5Z" fill="#D19E79" stroke="#A0A0A0"/>
</svg>
