<svg width="36" height="37" viewBox="0 0 36 37" fill="none" xmlns="http://www.w3.org/2000/svg">
<g clip-path="url(#clip0_1035_4409)">
<path d="M28.5 13.6901L20.5005 7.46814C19.7985 6.922 18.9344 6.62549 18.045 6.62549C17.1556 6.62549 16.2915 6.922 15.5895 7.46814L7.58851 13.6901C7.10768 14.0641 6.71865 14.5429 6.45115 15.0902C6.18364 15.6374 6.04473 16.2385 6.04501 16.8476V27.6476C6.04501 28.4433 6.36108 29.2064 6.92369 29.769C7.4863 30.3316 8.24936 30.6476 9.04501 30.6476H27.045C27.8407 30.6476 28.6037 30.3316 29.1663 29.769C29.7289 29.2064 30.045 28.4433 30.045 27.6476V16.8476C30.045 15.6131 29.475 14.4476 28.5 13.6901Z" stroke="#00151F" stroke-width="2.75" stroke-linecap="round" stroke-linejoin="round"/>
<path d="M24 23.125C20.685 25.1245 15.312 25.1245 12 23.125" stroke="#00151F" stroke-width="2.75" stroke-linecap="round" stroke-linejoin="round"/>
</g>
<defs>
<clipPath id="clip0_1035_4409">
<rect width="36" height="36" fill="white" transform="translate(0 0.625)"/>
</clipPath>
</defs>
</svg>
