<svg width="64" height="64" viewBox="0 0 64 64" fill="none" xmlns="http://www.w3.org/2000/svg">
<mask id="mask0_722_15" style="mask-type:alpha" maskUnits="userSpaceOnUse" x="0" y="0" width="64" height="64">
<rect width="64" height="64" fill="#D9D9D9"/>
</mask>
<g mask="url(#mask0_722_15)">
<path d="M15.5997 45.6007C17.8663 43.8673 20.3997 42.5006 23.1997 41.5006C25.9997 40.5006 28.933 40.0006 31.9997 40.0006C35.0663 40.0006 37.9997 40.5006 40.7997 41.5006C43.5997 42.5006 46.133 43.8673 48.3997 45.6007C49.9552 43.7784 51.1663 41.7118 52.033 39.4007C52.8997 37.0895 53.333 34.6229 53.333 32.0006C53.333 26.0895 51.2552 21.0562 47.0997 16.9007C42.9441 12.7451 37.9108 10.6673 31.9997 10.6673C26.0886 10.6673 21.0552 12.7451 16.8997 16.9007C12.7441 21.0562 10.6663 26.0895 10.6663 32.0006C10.6663 34.6229 11.0997 37.0895 11.9663 39.4007C12.833 41.7118 14.0441 43.7784 15.5997 45.6007ZM31.9997 34.6673C29.3775 34.6673 27.1663 33.7673 25.3663 31.9673C23.5663 30.1673 22.6663 27.9562 22.6663 25.334C22.6663 22.7118 23.5663 20.5007 25.3663 18.7007C27.1663 16.9007 29.3775 16.0007 31.9997 16.0007C34.6219 16.0007 36.833 16.9007 38.633 18.7007C40.433 20.5007 41.333 22.7118 41.333 25.334C41.333 27.9562 40.433 30.1673 38.633 31.9673C36.833 33.7673 34.6219 34.6673 31.9997 34.6673ZM31.9997 58.6673C28.3108 58.6673 24.8441 57.9673 21.5997 56.5673C18.3552 55.1673 15.533 53.2673 13.133 50.8673C10.733 48.4673 8.83301 45.6451 7.43301 42.4007C6.03301 39.1562 5.33301 35.6895 5.33301 32.0006C5.33301 28.3118 6.03301 24.8451 7.43301 21.6006C8.83301 18.3562 10.733 15.534 13.133 13.134C15.533 10.734 18.3552 8.83398 21.5997 7.43398C24.8441 6.03398 28.3108 5.33398 31.9997 5.33398C35.6886 5.33398 39.1552 6.03398 42.3997 7.43398C45.6441 8.83398 48.4663 10.734 50.8663 13.134C53.2663 15.534 55.1663 18.3562 56.5663 21.6006C57.9663 24.8451 58.6663 28.3118 58.6663 32.0006C58.6663 35.6895 57.9663 39.1562 56.5663 42.4007C55.1663 45.6451 53.2663 48.4673 50.8663 50.8673C48.4663 53.2673 45.6441 55.1673 42.3997 56.5673C39.1552 57.9673 35.6886 58.6673 31.9997 58.6673ZM31.9997 53.334C34.3552 53.334 36.5774 52.9895 38.6663 52.3007C40.7552 51.6118 42.6663 50.6229 44.3997 49.334C42.6663 48.0451 40.7552 47.0562 38.6663 46.3673C36.5774 45.6784 34.3552 45.334 31.9997 45.334C29.6441 45.334 27.4219 45.6784 25.333 46.3673C23.2441 47.0562 21.333 48.0451 19.5997 49.334C21.333 50.6229 23.2441 51.6118 25.333 52.3007C27.4219 52.9895 29.6441 53.334 31.9997 53.334ZM31.9997 29.334C33.1552 29.334 34.1108 28.9562 34.8663 28.2006C35.6219 27.4451 35.9997 26.4895 35.9997 25.334C35.9997 24.1784 35.6219 23.2229 34.8663 22.4673C34.1108 21.7118 33.1552 21.334 31.9997 21.334C30.8441 21.334 29.8886 21.7118 29.133 22.4673C28.3775 23.2229 27.9997 24.1784 27.9997 25.334C27.9997 26.4895 28.3775 27.4451 29.133 28.2006C29.8886 28.9562 30.8441 29.334 31.9997 29.334Z" fill="#1C1B1F"/>
</g>
</svg>
