<svg width="24" height="66" viewBox="0 0 24 66" fill="none" xmlns="http://www.w3.org/2000/svg">
<path d="M13.7354 65.8027H24.0001V58.0077H16.3541V36.9495H24.0001V29.0942H16.3541V8.24484H24.0001V0.241025H13.7354V65.8027Z" fill="#FFDBCA"/>
<path d="M0 23.8807L12.3766 20.6328V28.1707L0 29.0169V23.8807Z" fill="#FFDBCA"/>
<path d="M0 42.1623L12.3766 45.4102V37.8722L0 37.0261V42.1623Z" fill="#FFDBCA"/>
<path d="M0 17.1585L12.3766 10.9648V19.1111L0 22.5212V17.1585Z" fill="#FFDBCA"/>
<path d="M0 48.8845L12.3766 55.0781V46.9319L0 43.5217V48.8845Z" fill="#FFDBCA"/>
<path d="M0.000393569 11.3434L12.377 0.240234L12.377 9.09973L0.000393569 15.7998V11.3434Z" fill="#FFDBCA"/>
<path d="M0.000393569 54.6995L12.377 65.8027L12.377 56.9432L0.000393569 50.2432V54.6995Z" fill="#FFDBCA"/>
<path d="M0 35.8202L12.3766 36.5V29.5511L0 30.3064V35.8202Z" fill="#FFDBCA"/>
</svg>
