<svg width="21" height="64" viewBox="0 0 21 64" fill="none" xmlns="http://www.w3.org/2000/svg">
<path d="M13.4077 0H20.48V7.60934H15.9641V28.1659H20.48V35.8341H15.9641V56.1868H20.48V64H13.4077V0Z" fill="#331200"/>
<path d="M0 40.9213L12.0817 44.0918V36.7334L0 35.9075V40.9213Z" fill="#331200"/>
<path d="M0 23.0787L12.0817 19.9082V27.2666L0 28.0925V23.0787Z" fill="#331200"/>
<path d="M0 47.4832L12.0817 53.5293V45.5771L0 42.2482V47.4832Z" fill="#331200"/>
<path d="M0 16.5168L12.0817 10.4707V18.4229L0 21.7518V16.5168Z" fill="#331200"/>
<path d="M-0.000201374 53.1613L12.0815 64L12.0815 55.3515L-0.000201374 48.8111V53.1613Z" fill="#331200"/>
<path d="M-0.000201374 10.8387L12.0815 0L12.0815 8.64846L-0.000201374 15.1889V10.8387Z" fill="#331200"/>
<path d="M0 29.271L12.0817 28.6074V35.3908L0 34.6535V29.271Z" fill="#331200"/>
</svg>
