<svg width="25" height="25" viewBox="0 0 25 25" fill="none" xmlns="http://www.w3.org/2000/svg">
<g clip-path="url(#clip0_924_3973)">
<path d="M16.8281 4.5H8.67188C6.41959 4.5 4.59375 6.29086 4.59375 8.5V16.5C4.59375 18.7091 6.41959 20.5 8.67188 20.5H16.8281C19.0804 20.5 20.9062 18.7091 20.9062 16.5V8.5C20.9062 6.29086 19.0804 4.5 16.8281 4.5Z" stroke="white" stroke-width="1.5" stroke-linecap="round" stroke-linejoin="round"/>
<path d="M12.75 15.5C14.4392 15.5 15.8086 14.1569 15.8086 12.5C15.8086 10.8431 14.4392 9.5 12.75 9.5C11.0608 9.5 9.69141 10.8431 9.69141 12.5C9.69141 14.1569 11.0608 15.5 12.75 15.5Z" stroke="white" stroke-width="1.5" stroke-linecap="round" stroke-linejoin="round"/>
<path d="M17.3379 8V8.001" stroke="white" stroke-width="1.5" stroke-linecap="round" stroke-linejoin="round"/>
</g>
<defs>
<clipPath id="clip0_924_3973">
<rect width="24.4688" height="24" fill="white" transform="translate(0.515625 0.5)"/>
</clipPath>
</defs>
</svg>
