<svg width="26" height="25" viewBox="0 0 26 25" fill="none" xmlns="http://www.w3.org/2000/svg">
<g clip-path="url(#clip0_924_3984)">
<path d="M17.0781 20.5H20.1367C20.4071 20.5 20.6664 20.3946 20.8576 20.2071C21.0488 20.0196 21.1562 19.7652 21.1562 19.5V5.5C21.1562 5.23478 21.0488 4.98043 20.8576 4.79289C20.6664 4.60536 20.4071 4.5 20.1367 4.5H17.0781V20.5Z" stroke="white" stroke-width="1.5" stroke-linecap="round" stroke-linejoin="round"/>
<path d="M5.86328 20.5H8.92188V4.5H5.86328C5.59288 4.5 5.33356 4.60536 5.14236 4.79289C4.95116 4.98043 4.84375 5.23478 4.84375 5.5V19.5C4.84375 19.7652 4.95116 20.0196 5.14236 20.2071C5.33356 20.3946 5.59288 20.5 5.86328 20.5Z" stroke="white" stroke-width="1.5" stroke-linecap="round" stroke-linejoin="round"/>
<path d="M17.0781 4.5L13 8.5L8.92188 4.5" stroke="white" stroke-width="1.5" stroke-linecap="round" stroke-linejoin="round"/>
<path d="M4.84375 4.5L13 14.5L21.1562 4.5" stroke="white" stroke-width="1.5" stroke-linecap="round" stroke-linejoin="round"/>
</g>
<defs>
<clipPath id="clip0_924_3984">
<rect width="24.4688" height="24" fill="white" transform="translate(0.765625 0.5)"/>
</clipPath>
</defs>
</svg>
