<svg width="36" height="37" viewBox="0 0 36 37" fill="none" xmlns="http://www.w3.org/2000/svg">
<g clip-path="url(#clip0_1035_4415)">
<path d="M12 19.875V16.125C12 15.5283 12.2371 14.956 12.659 14.534C13.081 14.1121 13.6533 13.875 14.25 13.875C14.8467 13.875 15.419 14.1121 15.841 14.534C16.2629 14.956 16.5 15.5283 16.5 16.125V18.375" stroke="#00151F" stroke-width="2.75" stroke-linecap="round" stroke-linejoin="round"/>
<path d="M21 16.125C21 15.5283 21.2371 14.956 21.659 14.534C22.081 14.1121 22.6533 13.875 23.25 13.875C23.8467 13.875 24.419 14.1121 24.841 14.534C25.2629 14.956 25.5 15.5283 25.5 16.125V18.375" stroke="#00151F" stroke-width="2.75" stroke-linecap="round" stroke-linejoin="round"/>
<path d="M25.5 17.625C25.5 17.0283 25.7371 16.456 26.159 16.034C26.581 15.6121 27.1533 15.375 27.75 15.375C28.3467 15.375 28.919 15.6121 29.341 16.034C29.7629 16.456 30 17.0283 30 17.625V24.375C30 26.7619 29.0518 29.0511 27.364 30.739C25.6761 32.4268 23.3869 33.375 21 33.375H18H18.312C16.8215 33.3753 15.3543 33.0053 14.0421 32.2984C12.7299 31.5915 11.6138 30.5698 10.794 29.325C10.6956 29.1753 10.5976 29.0253 10.5 28.875C10.032 28.1565 8.3895 25.293 5.571 20.283C5.28368 19.7723 5.20693 19.1696 5.35707 18.6032C5.50722 18.0368 5.87242 17.5513 6.375 17.25C6.91032 16.9288 7.53761 16.7957 8.15724 16.8718C8.77687 16.9479 9.35331 17.2288 9.795 17.67L12 19.875" stroke="#00151F" stroke-width="2.75" stroke-linecap="round" stroke-linejoin="round"/>
<path d="M16.5 17.625V5.625C16.5 5.32953 16.5582 5.03694 16.6713 4.76396C16.7843 4.49098 16.9501 4.24294 17.159 4.03401C17.3679 3.82508 17.616 3.65934 17.889 3.54627C18.1619 3.4332 18.4545 3.375 18.75 3.375C19.0455 3.375 19.3381 3.4332 19.611 3.54627C19.884 3.65934 20.1321 3.82508 20.341 4.03401C20.5499 4.24294 20.7157 4.49098 20.8287 4.76396C20.9418 5.03694 21 5.32953 21 5.625V18.375" stroke="#120D0A" stroke-width="2.75" stroke-linecap="round" stroke-linejoin="round"/>
</g>
<defs>
<clipPath id="clip0_1035_4415">
<rect width="36" height="36" fill="white" transform="translate(0 0.375)"/>
</clipPath>
</defs>
</svg>
