<svg width="387" height="389" viewBox="0 0 387 389" fill="none" xmlns="http://www.w3.org/2000/svg">
<rect x="0.326172" y="129.779" width="32" height="299" transform="rotate(-30 0.326172 129.779)" fill="#FFDAB0" fill-opacity="0.4"/>
<rect x="1.00918" y="129.962" width="31" height="298" transform="rotate(-30 1.00918 129.962)" stroke="#B3967E" stroke-opacity="0.5"/>
<rect x="50" y="101.5" width="32" height="299" transform="rotate(-30 50 101.5)" fill="#FFDAB0" fill-opacity="0.4"/>
<rect x="50.683" y="101.683" width="31" height="298" transform="rotate(-30 50.683 101.683)" stroke="#B3967E" stroke-opacity="0.5"/>
<rect x="99.6738" y="73.2207" width="32" height="299" transform="rotate(-30 99.6738 73.2207)" fill="#FFDAB0" fill-opacity="0.4"/>
<rect x="100.357" y="73.4037" width="31" height="298" transform="rotate(-30 100.357 73.4037)" stroke="#B3967E" stroke-opacity="0.5"/>
<rect x="149.348" y="44.9414" width="32" height="299" transform="rotate(-30 149.348 44.9414)" fill="#FFDAB0" fill-opacity="0.4"/>
<rect x="150.031" y="45.1244" width="31" height="298" transform="rotate(-30 150.031 45.1244)" stroke="#B3967E" stroke-opacity="0.5"/>
<rect x="199.021" y="16.6621" width="32" height="299" transform="rotate(-30 199.021 16.6621)" fill="#FFDAB0" fill-opacity="0.4"/>
<rect x="199.704" y="16.8451" width="31" height="298" transform="rotate(-30 199.704 16.8451)" stroke="#B3967E" stroke-opacity="0.5"/>
<rect x="24.0674" y="152.949" width="1" height="100" transform="rotate(-30 24.0674 152.949)" fill="#673C1D" fill-opacity="0.5"/>
<rect x="21.0674" y="125.949" width="1" height="100" transform="rotate(-30 21.0674 125.949)" fill="#673C1D" fill-opacity="0.5"/>
<rect x="78.0674" y="214.949" width="1" height="100" transform="rotate(-30 78.0674 214.949)" fill="#673C1D" fill-opacity="0.5"/>
<rect x="71" y="114.5" width="1" height="100" transform="rotate(-30 71 114.5)" fill="#673C1D" fill-opacity="0.5"/>
<rect x="113" y="72.5" width="1" height="100" transform="rotate(-30 113 72.5)" fill="#673C1D" fill-opacity="0.5"/>
<rect x="169" y="260.5" width="1" height="70" transform="rotate(-30 169 260.5)" fill="#673C1D" fill-opacity="0.5"/>
<rect x="98" y="284.5" width="1" height="100" transform="rotate(-30 98 284.5)" fill="#673C1D" fill-opacity="0.5"/>
<rect x="89" y="254.5" width="1" height="50" transform="rotate(-30 89 254.5)" fill="#673C1D" fill-opacity="0.5"/>
<rect x="171" y="56.5" width="1" height="50" transform="rotate(-30 171 56.5)" fill="#673C1D" fill-opacity="0.5"/>
<rect x="132" y="208.5" width="1" height="50" transform="rotate(-30 132 208.5)" fill="#673C1D" fill-opacity="0.5"/>
<rect x="225" y="276.5" width="1" height="50" transform="rotate(-30 225 276.5)" fill="#673C1D" fill-opacity="0.5"/>
<rect x="204" y="209.5" width="1" height="50" transform="rotate(-30 204 209.5)" fill="#673C1D" fill-opacity="0.5"/>
<rect x="269" y="96.5" width="1" height="50" transform="rotate(-30 269 96.5)" fill="#673C1D" fill-opacity="0.5"/>
<rect x="193" y="218.5" width="1" height="20" transform="rotate(-30 193 218.5)" fill="#673C1D" fill-opacity="0.5"/>
<rect x="325" y="187.5" width="1" height="20" transform="rotate(-30 325 187.5)" fill="#673C1D" fill-opacity="0.5"/>
<rect x="98" y="138.5" width="1" height="30" transform="rotate(-30 98 138.5)" fill="#673C1D" fill-opacity="0.5"/>
<rect x="171" y="168.5" width="1" height="30" transform="rotate(-30 171 168.5)" fill="#673C1D" fill-opacity="0.5"/>
<rect x="145" y="104.5" width="1" height="30" transform="rotate(-30 145 104.5)" fill="#673C1D" fill-opacity="0.5"/>
<rect x="287" y="266.5" width="1" height="30" transform="rotate(-30 287 266.5)" fill="#673C1D" fill-opacity="0.5"/>
<rect x="294" y="162.5" width="1" height="30" transform="rotate(-30 294 162.5)" fill="#673C1D" fill-opacity="0.5"/>
<rect x="235" y="180.5" width="1" height="80" transform="rotate(-30 235 180.5)" fill="#673C1D" fill-opacity="0.5"/>
<rect x="222" y="37.5" width="1" height="80" transform="rotate(-30 222 37.5)" fill="#673C1D" fill-opacity="0.5"/>
<rect x="265" y="201.5" width="1" height="20" transform="rotate(-30 265 201.5)" fill="#673C1D" fill-opacity="0.5"/>
<rect x="138" y="319.5" width="1" height="10" transform="rotate(-30 138 319.5)" fill="#673C1D" fill-opacity="0.5"/>
<rect x="124" y="223.5" width="1" height="10" transform="rotate(-30 124 223.5)" fill="#673C1D" fill-opacity="0.5"/>
<rect x="330" y="229.5" width="1" height="10" transform="rotate(-30 330 229.5)" fill="#673C1D" fill-opacity="0.5"/>
<rect x="211" y="121.5" width="1" height="10" transform="rotate(-30 211 121.5)" fill="#673C1D" fill-opacity="0.5"/>
<rect x="193" y="332.5" width="1" height="10" transform="rotate(-30 193 332.5)" fill="#673C1D" fill-opacity="0.5"/>
<rect x="4" y="130.5" width="1" height="20" transform="rotate(-30 4 130.5)" fill="#673C1D" fill-opacity="0.5"/>
<path d="M84.5839 252.5C81.0812 253.897 77.2222 252.398 75.5844 249.001C74.5401 246.835 75.1628 243.975 78.4991 242.5C81.8862 241.003 86.6649 243.772 84.5839 246.835C83.5199 248.401 81.3853 248.174 79.5 248" stroke="#51371F" stroke-opacity="0.5"/>
<path d="M230.351 25.6487C226.849 27.046 222.99 25.5465 221.352 22.1496C220.308 19.9835 220.93 17.1239 224.267 15.649C227.654 14.1518 232.433 16.9206 230.351 19.9838C229.287 21.5498 227.153 21.3226 225.268 21.1487" stroke="#51371F" stroke-opacity="0.5"/>
<path d="M240.69 158.158C240.17 161.893 236.957 164.504 233.195 164.246C230.796 164.081 228.619 162.125 228.989 158.496C229.365 154.812 234.136 152.03 235.767 155.354C236.601 157.054 235.347 158.796 234.263 160.348" stroke="#51371F" stroke-opacity="0.5"/>
<path d="M157.028 349.774C157.817 353.461 155.691 357.014 152.067 358.058C149.757 358.724 147.042 357.629 146.148 354.093C145.241 350.503 148.773 346.257 151.443 348.822C152.809 350.134 152.226 352.2 151.738 354.03" stroke="#51371F" stroke-opacity="0.5"/>
<path d="M174.418 283.733C174.555 287.502 171.844 290.631 168.094 291.03C165.703 291.284 163.219 289.735 162.953 286.097C162.683 282.404 166.899 278.836 169.083 281.826C170.2 283.355 169.267 285.289 168.469 287.006" stroke="#51371F" stroke-opacity="0.5"/>
<path d="M357.031 255.18C357.168 258.949 354.457 262.078 350.707 262.477C348.316 262.731 345.833 261.182 345.567 257.544C345.297 253.851 349.512 250.283 351.696 253.273C352.813 254.802 351.881 256.736 351.082 258.453" stroke="#51371F" stroke-opacity="0.5"/>
<path d="M129.091 179.344C130.509 182.839 129.032 186.706 125.644 188.364C123.484 189.421 120.621 188.814 119.127 185.487C117.61 182.108 120.351 177.314 123.426 179.377C124.998 180.432 124.784 182.568 124.621 184.454" stroke="#51371F" stroke-opacity="0.5"/>
<path d="M275.438 315.5H287" stroke="#B3967E" stroke-opacity="0.5"/>
<path d="M250 331.5H262.488L287 316L275.9 297.5H265.725" stroke="#B3967E" stroke-opacity="0.5" stroke-linejoin="round"/>
<path d="M374.438 258.5H386" stroke="#B3967E" stroke-opacity="0.5"/>
<path d="M349 274.5H361.488L386 259L374.9 240.5H364.725" stroke="#B3967E" stroke-opacity="0.5" stroke-linejoin="round"/>
<path d="M28.5 114H39L51.5 135.5M51.5 135.5H40M51.5 135.5L43.5 140" stroke="#B3967E" stroke-opacity="0.5"/>
<path d="M227 1H237.5L250 22.5M250 22.5H238.5M250 22.5L242 27" stroke="#B3967E" stroke-opacity="0.5"/>
<path d="M127.5 58H138L150.5 79.5M150.5 79.5H139M150.5 79.5L142.5 84" stroke="#B3967E" stroke-opacity="0.5"/>
<path d="M176.438 372.5H188" stroke="#B3967E" stroke-opacity="0.5"/>
<path d="M151 388.5H163.488L188 373L176.9 354.5H166.725" stroke="#B3967E" stroke-opacity="0.5" stroke-linejoin="round"/>
</svg>
