<svg width="165" height="34" viewBox="0 0 165 34" fill="none" xmlns="http://www.w3.org/2000/svg">
<ellipse cx="17.25" cy="16.5" rx="16.3125" ry="16" fill="#E6E8EB"/>
<g clip-path="url(#clip0_722_2023)">
<rect width="24.4688" height="24" transform="translate(5.01562 4.5)" fill="#E6E8EB"/>
<path d="M21.3281 8.5H13.1719C10.9196 8.5 9.09375 10.2909 9.09375 12.5V20.5C9.09375 22.7091 10.9196 24.5 13.1719 24.5H21.3281C23.5804 24.5 25.4062 22.7091 25.4062 20.5V12.5C25.4062 10.2909 23.5804 8.5 21.3281 8.5Z" stroke="#B87646" stroke-width="1.5" stroke-linecap="round" stroke-linejoin="round"/>
<path d="M17.25 19.5C18.9392 19.5 20.3086 18.1569 20.3086 16.5C20.3086 14.8431 18.9392 13.5 17.25 13.5C15.5608 13.5 14.1914 14.8431 14.1914 16.5C14.1914 18.1569 15.5608 19.5 17.25 19.5Z" stroke="#B87646" stroke-width="1.5" stroke-linecap="round" stroke-linejoin="round"/>
<path d="M21.8379 12V12.001" stroke="#B87646" stroke-width="1.5" stroke-linecap="round" stroke-linejoin="round"/>
</g>
<ellipse cx="147.75" cy="17.5" rx="16.3125" ry="16" fill="#E6E8EB"/>
<g clip-path="url(#clip1_722_2023)">
<rect width="24.4688" height="24" transform="translate(135.516 5.5)" fill="#E6E8EB"/>
<path d="M138.574 26.5007L140.256 22.7007C138.969 20.9088 138.393 18.7177 138.636 16.5388C138.879 14.3599 139.925 12.3428 141.576 10.8662C143.228 9.3896 145.372 8.55492 147.607 8.5188C149.841 8.48269 152.012 9.24763 153.712 10.6701C155.413 12.0925 156.525 14.0747 156.841 16.2446C157.157 18.4145 156.655 20.6229 155.429 22.4555C154.203 24.288 152.337 25.6187 150.182 26.1978C148.027 26.7769 145.73 26.5646 143.723 25.6007L138.574 26.5007Z" stroke="#B87646" stroke-width="1.5" stroke-linecap="round" stroke-linejoin="round"/>
<path d="M144.691 15.5C144.691 15.6326 144.745 15.7598 144.841 15.8536C144.936 15.9473 145.066 16 145.201 16C145.336 16 145.466 15.9473 145.562 15.8536C145.657 15.7598 145.711 15.6326 145.711 15.5V14.5C145.711 14.3674 145.657 14.2402 145.562 14.1464C145.466 14.0527 145.336 14 145.201 14C145.066 14 144.936 14.0527 144.841 14.1464C144.745 14.2402 144.691 14.3674 144.691 14.5V15.5ZM144.691 15.5C144.691 16.8261 145.228 18.0979 146.184 19.0355C147.14 19.9732 148.437 20.5 149.789 20.5M149.789 20.5H150.809C150.944 20.5 151.073 20.4473 151.169 20.3536C151.265 20.2598 151.318 20.1326 151.318 20C151.318 19.8674 151.265 19.7402 151.169 19.6464C151.073 19.5527 150.944 19.5 150.809 19.5H149.789C149.654 19.5 149.524 19.5527 149.429 19.6464C149.333 19.7402 149.279 19.8674 149.279 20C149.279 20.1326 149.333 20.2598 149.429 20.3536C149.524 20.4473 149.654 20.5 149.789 20.5Z" stroke="#B87646" stroke-width="1.5" stroke-linecap="round" stroke-linejoin="round"/>
</g>
<ellipse cx="82.5" cy="17.5" rx="16.3125" ry="16" fill="#E6E8EB"/>
<g clip-path="url(#clip2_722_2023)">
<rect width="24.4688" height="24" transform="translate(70.2656 5.5)" fill="#E6E8EB"/>
<path d="M86.5781 25.5H89.6367C89.9071 25.5 90.1664 25.3946 90.3576 25.2071C90.5488 25.0196 90.6562 24.7652 90.6562 24.5V10.5C90.6562 10.2348 90.5488 9.98043 90.3576 9.79289C90.1664 9.60536 89.9071 9.5 89.6367 9.5H86.5781V25.5Z" stroke="#B87646" stroke-width="1.5" stroke-linecap="round" stroke-linejoin="round"/>
<path d="M75.3633 25.5H78.4219V9.5H75.3633C75.0929 9.5 74.8336 9.60536 74.6424 9.79289C74.4512 9.98043 74.3438 10.2348 74.3438 10.5V24.5C74.3438 24.7652 74.4512 25.0196 74.6424 25.2071C74.8336 25.3946 75.0929 25.5 75.3633 25.5Z" stroke="#B87646" stroke-width="1.5" stroke-linecap="round" stroke-linejoin="round"/>
<path d="M86.5781 9.5L82.5 13.5L78.4219 9.5" stroke="#B87646" stroke-width="1.5" stroke-linecap="round" stroke-linejoin="round"/>
<path d="M74.3438 9.5L82.5 19.5L90.6562 9.5" stroke="#B87646" stroke-width="1.5" stroke-linecap="round" stroke-linejoin="round"/>
</g>
<defs>
<clipPath id="clip0_722_2023">
<rect width="24.4688" height="24" fill="white" transform="translate(5.01562 4.5)"/>
</clipPath>
<clipPath id="clip1_722_2023">
<rect width="24.4688" height="24" fill="white" transform="translate(135.516 5.5)"/>
</clipPath>
<clipPath id="clip2_722_2023">
<rect width="24.4688" height="24" fill="white" transform="translate(70.2656 5.5)"/>
</clipPath>
</defs>
</svg>
