<svg width="314" height="98" viewBox="0 0 314 98" fill="none" xmlns="http://www.w3.org/2000/svg">
<rect x="308.039" y="0.542725" width="32" height="299" transform="rotate(80.5394 308.039 0.542725)" fill="#FFDAB0" fill-opacity="0.4"/>
<rect x="307.628" y="1.11811" width="31" height="298" transform="rotate(80.5394 307.628 1.11811)" stroke="#B3967E" stroke-opacity="0.5"/>
<rect x="208.725" y="38.0615" width="1" height="50" transform="rotate(80.5394 208.725 38.0615)" fill="#673C1D" fill-opacity="0.5"/>
<rect x="103.861" y="58.5742" width="1" height="20" transform="rotate(80.5394 103.861 58.5742)" fill="#673C1D" fill-opacity="0.5"/>
<rect x="138.148" y="38.3162" width="1" height="30" transform="rotate(80.5394 138.148 38.3162)" fill="#673C1D" fill-opacity="0.5"/>
<rect x="280.464" y="14.7495" width="1" height="80" transform="rotate(80.5394 280.464 14.7495)" fill="#673C1D" fill-opacity="0.5"/>
<rect x="62.7773" y="48.5208" width="1" height="10" transform="rotate(80.5394 62.7773 48.5208)" fill="#673C1D" fill-opacity="0.5"/>
<path d="M288.631 26.7282C288.552 22.9579 291.31 19.8704 295.065 19.5285C297.46 19.3105 299.92 20.897 300.13 24.5386C300.344 28.2357 296.074 31.7392 293.936 28.7158C292.843 27.17 293.805 25.2508 294.629 23.5463" stroke="#51371F" stroke-opacity="0.5"/>
<path d="M29.2454 64.8233C25.6682 63.6293 23.6891 59.9929 24.6312 56.3414C25.2319 54.0129 27.5536 52.2309 31.0537 53.2584C34.607 54.3014 36.4692 59.501 32.9024 60.4969C31.0789 61.0061 29.5953 59.4545 28.2677 58.1047" stroke="#51371F" stroke-opacity="0.5"/>
<path d="M20.0303 79.9585L15.9736 90.786" stroke="#B3967E" stroke-opacity="0.5"/>
<path d="M13.9719 50.5244L9.59063 62.2181L15.5051 90.6106L36.7235 86.7069L40.2934 77.1787" stroke="#B3967E" stroke-opacity="0.5" stroke-linejoin="round"/>
<path d="M312.89 32.2378L309.206 42.0703L284.687 46.2324M284.687 46.2324L288.722 35.4634M284.687 46.2324L283.28 37.1621" stroke="#B3967E" stroke-opacity="0.5"/>
</svg>
